# Alias OBJ Model File
# Exported from SketchUp, (c) 2000-2012 Trimble Navigation Limited
# File units = centimeters

mtllib alamobilR.mtl

g Mesh1 alasmobilR1 Model

usemtl FrontColor
v 304.717 6.22359 -193.542
vt -2.95276 0.11811
vn -1 0 -0
v 304.717 5.92359 -190.292
vt -1.67323 4.44089e-16
v 304.717 6.22359 -190.292
vt -1.67323 0.11811
f 1/1/1 2/2/1 3/3/1

v 304.717 5.92359 -193.542
vt -2.95276 4.44089e-16
f 2/2/1 1/1/1 4/4/1

usemtl BackColor
vn 1 -0 0
f 3/3/2 2/2/2 1/1/2

usemtl Color_M07
v 304.717 5.92359 -188.792
vt -1.08268 4.44089e-16
f 5/5/1 3/3/1 2/2/1

v 304.717 6.22359 -188.792
vt -1.08268 0.11811
f 3/3/1 5/5/1 6/6/1

f 6/6/2 5/5/2 3/3/2

usemtl FrontColor
vt 0 0.11811
vn 0 0 -1
v 304.917 5.92359 -188.792
vt -0.0787402 4.44089e-16
vt 0 4.44089e-16
f 6/7/3 7/8/3 5/9/3

v 304.917 6.22359 -188.792
vt -0.0787402 0.11811
f 7/8/3 6/7/3 8/10/3

usemtl BackColor
vn -0 -0 1
f 5/9/4 7/8/4 6/7/4

usemtl Color_M07
vt 0 1.08268
vn 0 -1 -0
v 304.917 5.92359 -190.292
vt -0.0787402 1.67323
vt -0.0787402 1.08268
f 5/11/5 9/12/5 7/13/5

vt 0 1.67323
f 9/12/5 5/11/5 2/14/5

vn -0 1 0
f 2/14/6 5/11/6 9/12/6

f 2/2/2 3/3/2 5/5/2

usemtl FrontColor
vn 0 0 1
v 304.917 6.22359 -190.292
vt 0.0787402 0.11811
f 2/9/7 10/15/7 3/7/7

vt 0.0787402 4.44089e-16
f 10/15/7 2/9/7 9/16/7

usemtl BackColor
vn -0 -0 -1
f 9/16/8 2/9/8 10/15/8

usemtl FrontColor
v 306.217 5.92359 -192.542
vt -0.590551 2.55906
f 2/14/5 11/17/5 9/12/5

vt 0 2.95276
f 4/18/5 11/17/5 2/14/5

v 318.717 5.92359 -193.542
vt -5.51181 2.95276
f 11/17/5 4/18/5 12/19/5

usemtl BackColor
f 2/14/6 11/17/6 4/18/6

f 9/12/6 11/17/6 2/14/6

usemtl FrontColor
f 9/12/5 11/17/5 7/13/5

usemtl BackColor
f 7/13/6 11/17/6 9/12/6

usemtl FrontColor
v 306.217 5.92359 -187.042
vt -0.590551 0.393701
f 13/20/5 7/13/5 11/17/5

v 304.717 5.92359 -186.042
vt 0 0
f 14/21/5 7/13/5 13/20/5

f 7/13/5 14/21/5 5/11/5

usemtl BackColor
f 5/11/6 14/21/6 7/13/6

usemtl FrontColor
f 14/9/1 6/6/1 5/5/1

v 304.717 6.22359 -186.042
f 6/6/1 14/9/1 15/7/1

usemtl BackColor
f 15/7/2 14/9/2 6/6/2

usemtl FrontColor
v 318.717 6.22359 -186.042
vt 5.51181 0.11811
f 14/9/7 16/22/7 15/7/7

v 318.717 5.92359 -186.042
vt 5.51181 4.44089e-16
f 16/22/7 14/9/7 17/23/7

usemtl BackColor
f 17/23/8 14/9/8 16/22/8

usemtl FrontColor
vt -5.51181 0
f 14/21/5 13/20/5 17/24/5

usemtl BackColor
f 13/20/6 7/13/6 14/21/6

f 11/17/6 7/13/6 13/20/6

usemtl FrontColor
v 306.217 5.92359 -191.542
vt -0.590551 2.16535
f 13/20/5 11/17/5 18/25/5

usemtl BackColor
f 18/25/6 11/17/6 13/20/6

usemtl FrontColor
v 317.217 5.92359 -192.542
vt -4.92126 2.55906
f 19/26/5 18/25/5 11/17/5

v 315.217 5.92359 -191.542
vt -4.13386 2.16535
f 18/25/5 19/26/5 20/27/5

usemtl BackColor
f 11/17/6 18/25/6 19/26/6

f 20/27/6 19/26/6 18/25/6

usemtl FrontColor
v 315.217 5.92359 -188.042
vt -4.13386 0.787402
f 20/27/5 19/26/5 21/28/5

usemtl BackColor
f 21/28/6 19/26/6 20/27/6

usemtl FrontColor
v 317.217 5.92359 -187.042
vt -4.92126 0.393701
f 22/29/5 21/28/5 19/26/5

f 13/20/5 21/28/5 22/29/5

v 306.217 5.92359 -188.042
vt -0.590551 0.787402
f 21/28/5 13/20/5 23/30/5

usemtl BackColor
f 23/30/6 13/20/6 21/28/6

usemtl FrontColor
f 13/20/5 18/25/5 23/30/5

usemtl BackColor
f 23/30/6 18/25/6 13/20/6

usemtl FrontColor
f 20/27/5 23/30/5 18/25/5

f 23/30/5 20/27/5 21/28/5

usemtl BackColor
f 18/25/6 23/30/6 20/27/6

f 21/28/6 20/27/6 23/30/6

f 22/29/6 21/28/6 13/20/6

f 19/26/6 21/28/6 22/29/6

usemtl FrontColor
f 19/26/5 12/19/5 22/29/5

f 11/17/5 12/19/5 19/26/5

usemtl BackColor
f 12/19/6 4/18/6 11/17/6

usemtl FrontColor
vt -5.51181 4.44089e-16
f 1/7/3 12/31/3 4/9/3

v 318.717 6.22359 -193.542
vt -5.51181 0.11811
f 12/31/3 1/7/3 24/32/3

usemtl BackColor
f 4/9/4 12/31/4 1/7/4

f 24/32/4 1/7/4 12/31/4

usemtl FrontColor
vn 0 1 -0
vt 0.0787402 1.67323
vt 5.51181 2.95276
f 1/18/9 10/33/9 24/34/9

f 10/33/9 1/18/9 3/14/9

usemtl BackColor
vn -0 -1 0
f 3/14/10 1/18/10 10/33/10

f 24/34/10 10/33/10 1/18/10

usemtl FrontColor
vt 5.51181 0
f 24/34/9 10/33/9 16/35/9

usemtl BackColor
f 16/35/10 10/33/10 24/34/10

usemtl FrontColor
vt 0.0787402 1.08268
f 8/36/9 16/35/9 10/33/9

f 6/11/9 16/35/9 8/36/9

f 16/35/9 6/11/9 15/21/9

usemtl BackColor
f 15/21/10 6/11/10 16/35/10

f 8/36/10 16/35/10 6/11/10

f 10/33/10 16/35/10 8/36/10

usemtl Color_M07
f 3/14/9 8/36/9 10/33/9

f 8/36/9 3/14/9 6/11/9

f 6/11/10 3/14/10 8/36/10

f 10/33/10 8/36/10 3/14/10

usemtl FrontColor
f 10/3/1 7/5/1 8/6/1

f 7/5/1 10/3/1 9/2/1

usemtl BackColor
f 8/6/2 7/5/2 10/3/2

f 8/10/4 6/7/4 7/8/4

f 9/2/2 10/3/2 7/5/2

usemtl Color_M07
f 7/13/6 9/12/6 5/11/6

usemtl BackColor
f 3/7/8 10/15/8 2/9/8

f 15/7/8 16/22/8 14/9/8

usemtl FrontColor
vn 1 0 -0
vt 2.95276 4.44089e-16
vt 2.95276 0.11811
f 16/7/11 12/37/11 24/38/11

f 12/37/11 16/7/11 17/9/11

usemtl BackColor
vn -1 -0 0
f 17/9/12 16/7/12 12/37/12

f 24/38/12 12/37/12 16/7/12

usemtl FrontColor
f 17/24/5 22/29/5 12/19/5

f 17/24/5 13/20/5 22/29/5

usemtl BackColor
f 17/24/6 13/20/6 14/21/6

f 22/29/6 13/20/6 17/24/6

f 12/19/6 22/29/6 17/24/6

f 22/29/6 12/19/6 19/26/6

f 19/26/6 12/19/6 11/17/6

f 4/4/2 1/1/2 2/2/2

f 5/5/2 6/6/2 14/9/2

