# Alias OBJ Model File
# Exported from SketchUp, (c) 2000-2012 Trimble Navigation Limited
# File units = centimeters

mtllib alasmobil.mtl

g Mesh1 alasmobil1 Model

usemtl Color_M07
v 3.2486e-13 28.8 -27.75
vt -1.67323 0.11811
vn -1 0 -0
v 3.2486e-13 28.5 -26.25
vt -1.08268 4.44089e-16
v 3.2486e-13 28.8 -26.25
vt -1.08268 0.11811
f 1/1/1 2/2/1 3/3/1

v 3.2486e-13 28.5 -27.75
vt -1.67323 4.44089e-16
f 2/2/1 1/1/1 4/4/1

vn 1 -0 0
f 3/3/2 2/2/2 1/1/2

usemtl FrontColor
v 3.2486e-13 28.5 -23.5
vt 0 4.44089e-16
f 5/5/1 3/3/1 2/2/1

v 3.2486e-13 28.8 -23.5
vt 0 0.11811
f 3/3/1 5/5/1 6/6/1

usemtl BackColor
f 6/6/2 5/5/2 3/3/2

usemtl FrontColor
vn 0 0 1
v 14 28.8 -23.5
vt 5.51181 0.11811
f 5/5/3 7/7/3 6/6/3

v 14 28.5 -23.5
vt 5.51181 4.44089e-16
f 7/7/3 5/5/3 8/8/3

usemtl BackColor
vn -0 -0 -1
f 8/8/4 5/5/4 7/7/4

usemtl FrontColor
vt 0 0
vn 0 -1 -0
v 1.5 28.5 -24.5
vt -0.590551 0.393701
vt -5.51181 0
f 5/9/5 9/10/5 8/11/5

v 0.2 28.5 -26.25
vt -0.0787402 1.08268
f 5/9/5 10/12/5 9/10/5

vt 0 1.08268
f 10/12/5 5/9/5 2/13/5

usemtl BackColor
vn -0 1 0
f 2/13/6 5/9/6 10/12/6

f 2/2/2 3/3/2 5/5/2

usemtl FrontColor
vn 0 0 -1
vt -0.0787402 4.44089e-16
f 3/6/7 10/14/7 2/5/7

v 0.2 28.8 -26.25
vt -0.0787402 0.11811
f 10/14/7 3/6/7 11/15/7

usemtl BackColor
vn -0 -0 1
f 2/5/8 10/14/8 3/6/8

usemtl Color_M07
v 0.2 28.5 -27.75
vt -0.0787402 1.67323
f 2/13/5 12/16/5 10/12/5

vt 0 1.67323
f 12/16/5 2/13/5 4/17/5

f 4/17/6 2/13/6 12/16/6

f 4/4/2 1/1/2 2/2/2

usemtl FrontColor
v 0.2 28.8 -27.75
vt 0.0787402 0.11811
f 4/5/3 13/18/3 1/6/3

vt 0.0787402 4.44089e-16
f 13/18/3 4/5/3 12/19/3

usemtl BackColor
f 12/19/4 4/5/4 13/18/4

usemtl FrontColor
v 1.5 28.5 -30
vt -0.590551 2.55906
f 4/17/5 14/20/5 12/16/5

v 3.2486e-13 28.5 -31
vt 0 2.95276
f 15/21/5 14/20/5 4/17/5

v 14 28.5 -31
vt -5.51181 2.95276
f 14/20/5 15/21/5 16/22/5

usemtl BackColor
f 4/17/6 14/20/6 15/21/6

f 12/16/6 14/20/6 4/17/6

usemtl FrontColor
f 12/16/5 14/20/5 10/12/5

usemtl BackColor
f 10/12/6 14/20/6 12/16/6

usemtl FrontColor
f 9/10/5 10/12/5 14/20/5

usemtl BackColor
f 9/10/6 10/12/6 5/9/6

f 14/20/6 10/12/6 9/10/6

usemtl FrontColor
v 1.5 28.5 -29
vt -0.590551 2.16535
f 9/10/5 14/20/5 17/23/5

usemtl BackColor
f 17/23/6 14/20/6 9/10/6

usemtl FrontColor
v 12.5 28.5 -30
vt -4.92126 2.55906
f 18/24/5 17/23/5 14/20/5

v 10.5 28.5 -29
vt -4.13386 2.16535
f 17/23/5 18/24/5 19/25/5

usemtl BackColor
f 14/20/6 17/23/6 18/24/6

f 19/25/6 18/24/6 17/23/6

usemtl FrontColor
v 10.5 28.5 -25.5
vt -4.13386 0.787402
f 19/25/5 18/24/5 20/26/5

usemtl BackColor
f 20/26/6 18/24/6 19/25/6

usemtl FrontColor
v 12.5 28.5 -24.5
vt -4.92126 0.393701
f 21/27/5 20/26/5 18/24/5

f 9/10/5 20/26/5 21/27/5

v 1.5 28.5 -25.5
vt -0.590551 0.787402
f 20/26/5 9/10/5 22/28/5

usemtl BackColor
f 22/28/6 9/10/6 20/26/6

usemtl FrontColor
f 9/10/5 17/23/5 22/28/5

usemtl BackColor
f 22/28/6 17/23/6 9/10/6

usemtl FrontColor
f 19/25/5 22/28/5 17/23/5

f 22/28/5 19/25/5 20/26/5

usemtl BackColor
f 17/23/6 22/28/6 19/25/6

f 20/26/6 19/25/6 22/28/6

f 21/27/6 20/26/6 9/10/6

f 18/24/6 20/26/6 21/27/6

usemtl FrontColor
f 18/24/5 16/22/5 21/27/5

f 14/20/5 16/22/5 18/24/5

usemtl BackColor
f 16/22/6 15/21/6 14/20/6

usemtl FrontColor
v 3.2486e-13 28.8 -31
vt -5.51181 4.44089e-16
f 23/6/7 16/29/7 15/5/7

v 14 28.8 -31
vt -5.51181 0.11811
f 16/29/7 23/6/7 24/30/7

usemtl BackColor
f 15/5/8 16/29/8 23/6/8

f 24/30/8 23/6/8 16/29/8

usemtl FrontColor
vn 0 1 -0
vt 0.0787402 1.67323
vt 5.51181 2.95276
f 23/21/9 13/31/9 24/32/9

f 13/31/9 23/21/9 1/17/9

usemtl BackColor
vn -0 -1 0
f 1/17/10 23/21/10 13/31/10

usemtl FrontColor
vt -2.95276 0.11811
f 23/33/1 4/4/1 1/1/1

vt -2.95276 4.44089e-16
f 4/4/1 23/33/1 15/34/1

usemtl BackColor
f 1/1/2 4/4/2 23/33/2

f 1/6/4 13/18/4 4/5/4

usemtl Color_M07
vt 0.0787402 1.08268
f 1/17/9 11/35/9 13/31/9

f 11/35/9 1/17/9 3/13/9

f 3/13/10 1/17/10 11/35/10

f 13/31/10 11/35/10 1/17/10

usemtl FrontColor
f 13/1/1 10/2/1 11/3/1

f 10/2/1 13/1/1 12/4/1

usemtl BackColor
f 11/3/2 10/2/2 13/1/2

f 11/15/8 3/6/8 10/14/8

usemtl FrontColor
vt 5.51181 0
f 3/13/9 7/36/9 11/35/9

f 7/36/9 3/13/9 6/9/9

usemtl BackColor
f 6/9/10 3/13/10 7/36/10

f 11/35/10 7/36/10 3/13/10

usemtl FrontColor
f 11/35/9 7/36/9 13/31/9

usemtl BackColor
f 13/31/10 7/36/10 11/35/10

usemtl FrontColor
f 24/32/9 13/31/9 7/36/9

usemtl BackColor
f 24/32/10 13/31/10 23/21/10

f 7/36/10 13/31/10 24/32/10

usemtl FrontColor
vn 1 0 -0
vt 2.95276 4.44089e-16
vt 2.95276 0.11811
f 7/6/11 16/37/11 24/38/11

f 16/37/11 7/6/11 8/5/11

usemtl BackColor
vn -1 -0 0
f 8/5/12 7/6/12 16/37/12

f 24/38/12 16/37/12 7/6/12

usemtl FrontColor
f 8/11/5 21/27/5 16/22/5

f 8/11/5 9/10/5 21/27/5

usemtl BackColor
f 8/11/6 9/10/6 5/9/6

f 21/27/6 9/10/6 8/11/6

f 16/22/6 21/27/6 8/11/6

f 21/27/6 16/22/6 18/24/6

f 18/24/6 16/22/6 14/20/6

f 6/6/4 7/7/4 5/5/4

f 12/4/2 13/1/2 10/2/2

usemtl Color_M07
f 10/12/6 12/16/6 2/13/6

usemtl BackColor
f 15/34/2 23/33/2 4/4/2

