# Alias OBJ Model File
# Exported from SketchUp, (c) 2000-2012 Trimble Navigation Limited
# File units = centimeters

mtllib box.mtl

g Mesh1 boxalas1 Model

usemtl Translucent_Glass_Blue
v 0.2 14.8 -17.25
vt 0.0787402 5.82677
vn 0 0 1
v 0 14.5 -17.25
vt 0 5.70866
v 0.2 14.5 -17.25
vt 0.0787402 5.70866
f 1/1/1 2/2/1 3/3/1

v 0 14.8 -17.25
vt 0 5.82677
f 2/2/1 1/1/1 4/4/1

vn -0 -0 -1
f 3/3/2 2/2/2 1/1/2

vt -7.25105e-16 6.79133
vn 1.27018e-16 -1 6.97399e-19
v 1.5 14.5 -19
vt -0.590551 7.48031
vt -0.0787402 6.79133
f 2/5/3 5/6/3 3/7/3

v 0 14.5 -34.5
vt -7.25105e-16 13.5827
f 6/8/3 5/6/3 2/5/3

v 15.85 14.5 -32.5408
vt -6.24016 12.8113
f 5/6/3 6/8/3 7/9/3

vn -1.27018e-16 1 -6.97399e-19
f 2/5/4 5/6/4 6/8/4

f 3/7/4 5/6/4 2/5/4

v 0.2 14.5 -15.75
vt -0.0787402 6.20078
f 3/7/3 5/6/3 8/10/3

f 8/10/4 5/6/4 3/7/4

v 1.5 14.5 -13.5
vt -0.590551 5.31496
f 9/11/3 8/10/3 5/6/3

v 0 14.5 -0
vt -7.25105e-16 -3.98121e-18
f 10/12/3 8/10/3 9/11/3

v 0 14.5 -15.75
vt -7.25105e-16 6.20078
f 8/10/3 10/12/3 11/13/3

f 11/13/4 10/12/4 8/10/4

vn -1 0 -0
v 0 14.8 -15.75
vt -6.20078 5.82677
vt -6.20078 5.70866
f 10/2/5 12/14/5 11/15/5

v 0 14.8 -0
f 12/14/5 10/2/5 13/4/5

vn 1 -0 0
f 13/4/6 10/2/6 12/14/6

v 25.2166 14.8 -0
vt 9.92781 5.82677
f 10/2/1 14/16/1 13/4/1

v 25.2166 14.5 -0
vt 9.92781 5.70866
f 14/16/1 10/2/1 15/17/1

f 15/17/2 10/2/2 14/16/2

v 15.85 14.5 -2.11867
vt -6.24016 0.834124
vt -9.92781 -3.98121e-18
f 10/12/3 16/18/3 15/19/3

f 10/12/3 9/11/3 16/18/3

f 9/11/4 8/10/4 10/12/4

f 5/6/4 8/10/4 9/11/4

v 1.5 14.5 -18
vt -0.590551 7.08661
f 9/11/3 5/6/3 17/20/3

f 17/20/4 5/6/4 9/11/4

vt 7.48031 5.70866
vn 1 0 -0
v 1.5 14.8 -18
vt 7.08661 5.82677
vt 7.08661 5.70866
f 5/21/7 18/22/7 17/23/7

v 1.5 14.8 -19
vt 7.48031 5.82677
f 18/22/7 5/21/7 19/24/7

vn -1 -0 0
f 17/23/8 18/22/8 5/21/8

vt -0.590551 5.82677
vn 0 0 -1
v 10.5 14.5 -18
vt -4.13386 5.70866
vt -0.590551 5.70866
f 18/25/9 20/26/9 17/27/9

v 10.5 14.8 -18
vt -4.13386 5.82677
f 20/26/9 18/25/9 21/28/9

vn -0 -0 1
f 17/27/10 20/26/10 18/25/10

vt -4.13386 7.08661
v 1.5 14.5 -14.5
f 20/29/3 22/27/3 17/20/3

v 10.5 14.5 -14.5
f 22/27/3 20/29/3 23/26/3

f 17/20/4 22/27/4 20/29/4

f 9/11/3 17/20/3 22/27/3

f 22/27/4 17/20/4 9/11/4

vt 5.70866 5.70866
v 1.5 14.8 -13.5
vt 5.31496 5.82677
vt 5.31496 5.70866
f 22/30/7 24/31/7 9/32/7

v 1.5 14.8 -14.5
vt 5.70866 5.82677
f 24/31/7 22/30/7 25/33/7

f 9/32/8 24/31/8 22/30/8

v 12.5 14.5 -13.5
vt -4.92126 5.70866
f 24/25/9 26/34/9 9/27/9

v 12.5 14.8 -13.5
vt -4.92126 5.82677
f 26/34/9 24/25/9 27/35/9

f 9/27/10 26/34/10 24/25/10

vt -4.92126 5.31496
f 16/18/3 9/11/3 26/36/3

f 16/18/4 9/11/4 10/12/4

f 26/36/4 9/11/4 16/18/4

v 14 14.5 -13.5
vt -5.51181 5.31496
f 16/18/3 26/36/3 28/37/3

f 28/37/4 26/36/4 16/18/4

vt -5.51181 5.70866
f 27/35/9 28/38/9 26/34/9

v 14 14.8 -13.5
vt -5.51181 5.82677
f 28/38/9 27/35/9 29/39/9

f 26/34/10 28/38/10 27/35/10

f 29/39/10 27/35/10 28/38/10

vt 4.92126 5.31496
vn -1.29575e-16 1 -4.2358e-18
v 15.85 14.8 -2.11867
vt 6.24016 0.834124
vt 5.51181 5.31496
f 27/40/11 30/41/11 29/42/11

vt 0.590551 5.31496
f 24/43/11 30/41/11 27/40/11

vt 7.55005e-16 -2.4681e-17
f 24/43/11 13/44/11 30/41/11

vt 7.55005e-16 6.20078
f 13/44/11 24/43/11 12/45/11

vn 1.29575e-16 -1 4.2358e-18
f 12/45/12 24/43/12 13/44/12

v 0.2 14.8 -15.75
vt 0.0787402 6.20078
f 12/45/11 24/43/11 31/46/11

f 31/46/12 24/43/12 12/45/12

vt 0.0787402 6.79133
f 31/46/11 24/43/11 1/47/11

f 1/47/12 24/43/12 31/46/12

vt 0.590551 7.48031
f 19/48/11 1/47/11 24/43/11

v 0 14.8 -34.5
vt 7.55005e-16 13.5827
f 32/49/11 1/47/11 19/48/11

vt 7.55005e-16 6.79133
f 1/47/11 32/49/11 4/50/11

f 4/50/12 32/49/12 1/47/12

vt -13.5827 5.82677
vt -6.79133 5.70866
vt -6.79133 5.82677
f 32/51/5 2/52/5 4/53/5

vt -13.5827 5.70866
f 2/52/5 32/51/5 6/54/5

f 4/53/6 2/52/6 32/51/6

f 4/4/2 1/1/2 2/2/2

f 6/54/6 32/51/6 2/52/6

v 25.2166 14.5 -34.5
vt -9.92781 5.70866
f 32/4/9 33/55/9 6/2/9

v 25.2166 14.8 -34.5
vt -9.92781 5.82677
f 33/55/9 32/4/9 34/56/9

f 6/2/10 33/55/10 32/4/10

vt -9.92781 13.5827
f 7/9/3 6/8/3 33/57/3

f 7/9/4 6/8/4 5/6/4

f 33/57/4 6/8/4 7/9/4

v 17.85 14.5 -32.5408
vt -7.02756 12.8113
f 7/9/3 33/57/3 35/58/3

f 35/58/4 33/57/4 7/9/4

v 17.85 14.5 -19.3297
vt -7.02756 7.61013
f 35/58/3 33/57/3 36/59/3

f 36/59/4 33/57/4 35/58/4

v 25.2166 14.5 -19.3297
vt -9.92781 7.61013
f 36/59/3 33/57/3 37/60/3

f 37/60/4 33/57/4 36/59/4

v 25.2166 14.5 -31.5
vt -9.92781 12.4016
f 37/60/3 33/57/3 38/61/3

f 38/61/4 33/57/4 37/60/4

vt 13.5827 5.70866
v 25.2166 14.8 -31.5
vt 12.4016 5.82677
vt 12.4016 5.70866
f 33/62/7 39/63/7 38/64/7

vt 13.5827 5.82677
f 39/63/7 33/62/7 34/65/7

f 38/64/8 39/63/8 33/62/8

v 25.5166 14.5 -31.5
vt -10.0459 5.70866
f 39/56/9 40/66/9 38/55/9

v 25.5166 14.8 -31.5
vt -10.0459 5.82677
f 40/66/9 39/56/9 41/67/9

f 38/55/10 40/66/10 39/56/10

v 25.5166 0.3 -31.5
vt -10.0459 0.11811
f 42/68/9 38/55/9 40/66/9

v 25.2166 0.3 -31.5
vt -9.92781 0.11811
f 38/55/9 42/68/9 43/69/9

f 43/69/10 42/68/10 38/55/10

v 25.5166 0 -31.5
vt -10.0459 0
f 44/70/9 43/69/9 42/68/9

v 25.2166 0 -31.5
vt -9.92781 0
f 43/69/9 44/70/9 45/71/9

f 45/71/10 44/70/10 43/69/10

vt -10.0459 12.4016
vn 0 -1 -0
v 25.2166 0 -2
vt -9.92781 0.787402
f 44/72/13 46/73/13 45/61/13

v 25.5166 0 -2
vt -10.0459 0.787402
f 46/73/13 44/72/13 47/74/13

vn -0 1 0
f 45/61/14 46/73/14 44/72/14

vt 12.4016 0
v 25.2166 0.3 -2
vt 0.787402 0.11811
vt 0.787402 0
f 45/75/7 48/76/7 46/77/7

vt 12.4016 0.11811
f 48/76/7 45/75/7 43/78/7

f 46/77/8 48/76/8 45/75/8

vt 9.92781 0
v 25.5166 0.3 -2
vt 10.0459 0.11811
vt 9.92781 0.11811
f 46/79/1 49/80/1 48/81/1

vt 10.0459 0
f 49/80/1 46/79/1 47/82/1

f 47/82/2 46/79/2 49/80/2

f 47/74/14 44/72/14 46/73/14

f 44/75/7 49/76/7 47/77/7

f 49/76/7 44/75/7 42/78/7

f 47/77/8 49/76/8 44/75/8

f 42/78/8 44/75/8 49/76/8

f 42/68/10 43/69/10 44/70/10

vt 9.92781 12.4016
vn 0 1 -0
vt 10.0459 0.787402
vt 10.0459 12.4016
f 43/83/15 49/84/15 42/85/15

vt 9.92781 0.787402
f 49/84/15 43/83/15 48/86/15

vn -0 -1 0
f 48/86/16 43/83/16 49/84/16

v 20.7166 0.3 -31.5
vt 8.15616 12.4016
f 50/87/15 48/86/15 43/83/15

v 20.7166 0.3 -2
vt 8.15616 0.787402
f 48/86/15 50/87/15 51/88/15

f 51/88/16 50/87/16 48/86/16

vt -12.4016 0.11811
v 20.7166 0 -2
vt -0.787402 0
vt -0.787402 0.11811
f 50/89/5 52/90/5 51/91/5

v 20.7166 0 -31.5
vt -12.4016 0
f 52/90/5 50/89/5 53/92/5

f 51/91/6 52/90/6 50/89/6

vt 8.15616 0
vt 8.15616 0.11811
f 52/93/1 48/81/1 51/94/1

f 48/81/1 52/93/1 46/79/1

f 46/79/2 52/93/2 48/81/2

vt -8.15616 0.787402
f 52/95/13 45/61/13 46/73/13

vt -8.15616 12.4016
f 45/61/13 52/95/13 53/96/13

f 53/96/14 52/95/14 45/61/14

f 53/92/6 50/89/6 52/90/6

vt -8.15616 0.11811
vt -8.15616 0
f 50/97/9 45/71/9 53/98/9

f 45/71/9 50/97/9 43/69/9

f 53/98/10 45/71/10 50/97/10

f 43/69/10 50/97/10 45/71/10

f 43/83/16 48/86/16 50/87/16

f 43/78/8 45/75/8 48/76/8

v 25.2166 14.5 -13.3297
vt -5.24792 5.70866
f 48/91/5 54/99/5 43/89/5

v 25.2166 14.5 -2
vt -0.787402 5.70866
f 54/99/5 48/91/5 55/100/5

f 55/100/6 48/91/6 54/99/6

v 25.5166 14.5 -2
vt 10.0459 5.70866
f 48/81/1 56/101/1 55/17/1

f 56/101/1 48/81/1 49/80/1

f 49/80/2 48/81/2 56/101/2

f 48/81/2 49/80/2 46/79/2

f 55/17/2 56/101/2 48/81/2

v 25.5166 14.8 -2
vt 10.0459 5.82677
f 57/102/1 55/17/1 56/101/1

v 25.2166 14.8 -2
f 55/17/1 57/102/1 58/16/1

f 56/101/2 55/17/2 57/102/2

vt 9.92781 5.24792
f 56/84/15 54/103/15 55/86/15

vt 9.92781 7.61013
f 54/103/15 56/84/15 37/104/15

f 55/86/16 54/103/16 56/84/16

vt -9.92781 5.24792
f 15/19/3 54/105/3 55/73/3

v 18.15 14.5 -12.9994
vt -7.14567 5.11786
f 15/19/3 59/106/3 54/105/3

v 17.85 14.5 -2.11867
vt -7.02756 0.834124
f 15/19/3 60/107/3 59/106/3

f 15/19/3 16/18/3 60/107/3

f 15/19/4 16/18/4 10/12/4

f 60/107/4 16/18/4 15/19/4

vt -6.24016 5.82677
vn 0 6.94142e-18 -1
vt -7.02756 5.70866
vt -6.24016 5.70866
f 30/108/17 60/109/17 16/110/17

v 17.85 14.8 -2.11867
vt -7.02756 5.82677
f 60/109/17 30/108/17 61/111/17

vn -0 -6.94142e-18 1
f 16/110/18 60/109/18 30/108/18

f 61/111/18 30/108/18 60/109/18

vt 9.92781 -2.4681e-17
vt 7.02756 0.834124
f 30/41/11 14/112/11 61/113/11

f 30/41/11 13/44/11 14/112/11

f 30/41/12 13/44/12 24/43/12

f 14/112/12 13/44/12 30/41/12

f 13/4/2 14/16/2 10/2/2

f 61/113/12 14/112/12 30/41/12

v 17.85 14.8 -12.9994
vt 7.02756 5.11786
f 61/113/11 14/112/11 62/114/11

f 62/114/12 14/112/12 61/113/12

v 18.15 14.8 -12.9994
vt 7.14567 5.11786
f 62/114/11 14/112/11 63/115/11

f 63/115/12 14/112/12 62/114/12

v 18.15 14.8 -13.3297
vt 7.14567 5.24792
f 63/115/11 14/112/11 64/116/11

f 64/116/12 14/112/12 63/115/12

v 25.2166 14.8 -13.3297
f 64/116/11 14/112/11 65/103/11

f 65/103/12 14/112/12 64/116/12

f 65/103/11 14/112/11 58/86/11

f 58/86/12 14/112/12 65/103/12

vt 0.787402 5.70866
vt 0.787402 5.82677
f 14/4/7 55/117/7 58/118/7

f 55/117/7 14/4/7 15/2/7

f 15/2/8 14/4/8 55/117/8

f 58/118/8 55/117/8 14/4/8

f 58/16/2 57/102/2 55/17/2

vn -3.75921e-15 1 1.06722e-18
f 57/84/19 65/103/19 58/86/19

v 25.2166 14.8 -19.3297
f 65/103/19 57/84/19 66/104/19

vn 3.75921e-15 -1 -1.06722e-18
f 58/86/20 65/103/20 57/84/20

vt -5.24792 5.82677
vt -0.787402 5.82677
f 65/119/5 55/100/5 58/120/5

f 55/100/5 65/119/5 54/99/5

f 58/120/6 55/100/6 65/119/6

f 54/99/6 65/119/6 55/100/6

vt -7.61013 5.82677
f 66/121/5 54/99/5 65/119/5

vt -7.61013 5.70866
f 54/99/5 66/121/5 37/122/5

f 65/119/6 54/99/6 66/121/6

vt -7.14567 5.82677
f 54/55/9 64/123/9 65/56/9

v 18.15 14.5 -13.3297
vt -7.14567 5.70866
f 64/123/9 54/55/9 67/124/9

f 67/124/10 54/55/10 64/123/10

vt -7.14567 5.24792
f 54/105/3 59/106/3 67/125/3

f 67/125/4 59/106/4 54/105/4

vt -5.11786 5.70866
f 59/126/5 64/119/5 67/99/5

vt -5.11786 5.82677
f 64/119/5 59/126/5 63/127/5

f 63/127/6 59/126/6 64/119/6

f 59/124/17 62/111/17 63/123/17

v 17.85 14.5 -12.9994
f 62/111/17 59/124/17 68/109/17

f 68/109/18 59/124/18 62/111/18

vt -7.02756 5.11786
f 59/106/3 60/107/3 68/128/3

f 68/128/4 60/107/4 59/106/4

vt -0.834124 5.70866
vn -1 -2.45831e-16 -0
f 60/129/21 62/127/21 68/126/21

vt -0.834124 5.82677
f 62/127/21 60/129/21 61/130/21

vn 1 2.45831e-16 0
f 61/130/22 60/129/22 62/127/22

f 68/126/22 62/127/22 60/129/22

f 59/106/4 60/107/4 15/19/4

f 54/105/4 59/106/4 15/19/4

f 55/73/4 54/105/4 15/19/4

f 63/123/18 62/111/18 59/124/18

f 67/99/6 64/119/6 59/126/6

f 65/56/10 64/123/10 54/55/10

f 37/122/6 66/121/6 54/99/6

vt -12.4016 5.82677
f 39/131/5 37/122/5 66/121/5

vt -12.4016 5.70866
f 37/122/5 39/131/5 38/132/5

f 66/121/6 37/122/6 39/131/6

vt 7.02756 5.70866
f 66/16/1 36/133/1 37/17/1

v 17.85 14.8 -19.3297
vt 7.02756 5.82677
f 36/133/1 66/16/1 69/134/1

f 37/17/2 36/133/2 66/16/2

f 69/134/2 66/16/2 36/133/2

v 17.85 14.8 -32.5408
vt 7.02756 12.8113
vt 7.02756 7.61013
f 66/104/11 70/135/11 69/136/11

vt 9.92781 13.5827
f 34/137/11 70/135/11 66/104/11

v 15.85 14.8 -32.5408
vt 6.24016 12.8113
f 34/137/11 71/138/11 70/135/11

f 32/49/11 71/138/11 34/137/11

f 32/49/11 19/48/11 71/138/11

f 19/48/12 1/47/12 32/49/12

f 24/43/12 1/47/12 19/48/12

vt 0.590551 5.70866
f 19/48/11 24/43/11 25/139/11

f 25/139/12 24/43/12 19/48/12

f 25/33/8 22/30/8 24/31/8

v 10.5 14.8 -14.5
vt 4.13386 5.82677
vt 0.590551 5.82677
f 22/139/1 72/140/1 25/141/1

vt 4.13386 5.70866
f 72/140/1 22/139/1 23/142/1

f 23/142/2 22/139/2 72/140/2

f 23/26/4 20/29/4 22/27/4

f 20/23/7 72/33/7 23/30/7

f 72/33/7 20/23/7 21/22/7

f 23/30/8 72/33/8 20/23/8

f 21/22/8 20/23/8 72/33/8

f 21/28/10 18/25/10 20/26/10

vt 0.590551 7.08661
vt 4.13386 7.08661
f 18/143/11 72/142/11 21/144/11

f 72/142/11 18/143/11 25/139/11

f 25/139/12 18/143/12 72/142/12

f 19/48/11 25/139/11 18/143/11

f 18/143/12 25/139/12 19/48/12

f 19/24/8 5/21/8 18/22/8

v 12.5 14.8 -19
vt 4.92126 5.82677
f 5/139/1 73/145/1 19/141/1

v 12.5 14.5 -19
vt 4.92126 5.70866
f 73/145/1 5/139/1 74/146/1

f 74/146/2 5/139/2 73/145/2

vt -4.92126 7.48031
f 5/6/3 7/9/3 74/147/3

f 74/147/4 7/9/4 5/6/4

v 14 14.5 -19
vt -5.51181 7.48031
f 74/147/3 7/9/3 75/148/3

f 75/148/4 7/9/4 74/147/4

v 15.85 14.5 -19
vt -6.24016 7.48031
f 76/149/3 75/148/3 7/9/3

vt 6.24016 5.70866
v 14 14.8 -19
vt 5.51181 5.82677
vt 5.51181 5.70866
f 76/150/1 77/151/1 75/152/1

v 15.85 14.8 -19
vt 6.24016 5.82677
f 77/151/1 76/150/1 78/153/1

f 75/152/2 77/151/2 76/150/2

f 73/145/1 75/152/1 77/151/1

f 75/152/1 73/145/1 74/146/1

f 74/146/2 73/145/2 75/152/2

f 77/151/2 75/152/2 73/145/2

vt 4.92126 7.48031
vt 5.51181 7.48031
f 71/138/11 73/154/11 77/155/11

f 71/138/11 19/48/11 73/154/11

f 71/138/12 19/48/12 32/49/12

f 73/154/12 19/48/12 71/138/12

f 19/141/2 73/145/2 5/139/2

f 77/155/12 73/154/12 71/138/12

vt 6.24016 7.48031
f 71/138/11 77/155/11 78/156/11

f 78/156/12 77/155/12 71/138/12

f 78/153/2 76/150/2 77/151/2

vt 12.8113 5.70866
vn 1 2.45831e-16 2.04785e-32
f 7/157/23 78/24/23 76/21/23

vt 12.8113 5.82677
f 78/24/23 7/157/23 71/158/23

vn -1 -2.45831e-16 -2.04785e-32
f 76/21/24 78/24/24 7/157/24

f 71/158/24 7/157/24 78/24/24

vn 0 -6.94142e-18 1
f 7/150/25 70/134/25 71/153/25

f 70/134/25 7/150/25 35/133/25

vn -0 6.94142e-18 -1
f 35/133/26 7/150/26 70/134/26

f 71/153/26 70/134/26 7/150/26

f 70/135/12 71/138/12 34/137/12

f 34/137/12 71/138/12 32/49/12

f 34/56/10 32/4/10 33/55/10

f 34/65/8 33/62/8 39/63/8

f 34/137/11 66/104/11 39/83/11

f 66/104/12 70/135/12 34/137/12

f 69/136/12 70/135/12 66/104/12

vt -12.8113 5.82677
f 70/159/5 36/122/5 69/121/5

vt -12.8113 5.70866
f 36/122/5 70/159/5 35/160/5

f 69/121/6 36/122/6 70/159/6

f 35/160/6 70/159/6 36/122/6

f 39/83/12 66/104/12 34/137/12

f 66/104/19 57/84/19 39/83/19

f 66/104/20 57/84/20 65/103/20

f 39/83/20 57/84/20 66/104/20

f 39/83/19 57/84/19 41/85/19

f 41/85/20 57/84/20 39/83/20

f 57/118/7 40/64/7 41/63/7

f 40/64/7 57/118/7 56/117/7

f 56/117/8 57/118/8 40/64/8

f 41/63/8 40/64/8 57/118/8

f 41/67/10 39/56/10 40/66/10

f 38/83/15 56/84/15 40/85/15

f 37/104/15 56/84/15 38/83/15

f 37/104/16 56/84/16 54/103/16

f 38/83/16 56/84/16 37/104/16

f 40/85/16 56/84/16 38/83/16

f 56/117/7 42/78/7 40/64/7

f 42/78/7 56/117/7 49/76/7

f 49/76/8 56/117/8 42/78/8

f 40/64/8 42/78/8 56/117/8

f 40/66/10 38/55/10 42/68/10

f 42/85/16 49/84/16 43/83/16

f 43/89/5 37/122/5 38/132/5

f 43/89/5 54/99/5 37/122/5

f 43/89/6 54/99/6 48/91/6

f 37/122/6 54/99/6 43/89/6

f 38/132/6 37/122/6 43/89/6

f 38/132/6 39/131/6 37/122/6

f 7/9/4 75/148/4 76/149/4

f 21/144/12 72/142/12 18/143/12

f 25/141/2 72/140/2 22/139/2

f 27/40/12 30/41/12 24/43/12

f 29/42/12 30/41/12 27/40/12

v 15.35 14.8 -12.9994
vt 6.04331 5.11786
f 29/42/11 30/41/11 79/161/11

f 79/161/12 30/41/12 29/42/12

v 15.85 14.8 -12.9994
vt 6.24016 5.11786
f 80/162/11 79/161/11 30/41/11

f 30/41/12 79/161/12 80/162/12

v 15.85 14.5 -12.9994
vt -6.04331 5.82677
f 81/110/17 79/163/17 80/108/17

v 15.35 14.5 -12.9994
vt -6.04331 5.70866
f 79/163/17 81/110/17 82/164/17

f 82/164/18 81/110/18 79/163/18

vt -6.04331 5.11786
vt -6.24016 5.11786
f 16/18/3 82/165/3 81/166/3

f 16/18/3 28/37/3 82/165/3

f 82/165/4 28/37/4 16/18/4

v 15.35 14.5 -13.5
vt -6.04331 5.31496
f 82/165/3 28/37/3 83/167/3

f 83/167/4 28/37/4 82/165/4

f 29/39/9 83/164/9 28/38/9

v 15.35 14.8 -13.5
f 83/164/9 29/39/9 84/163/9

f 28/38/10 83/164/10 29/39/10

f 84/163/10 29/39/10 83/164/10

vt 6.04331 5.31496
f 84/168/11 29/42/11 79/161/11

f 79/161/12 29/42/12 84/168/12

vt 5.11786 5.82677
vn 1 2.45831e-16 -5.53896e-31
f 79/169/27 83/32/27 84/31/27

vt 5.11786 5.70866
f 83/32/27 79/169/27 82/170/27

vn -1 -2.45831e-16 5.53896e-31
f 82/170/28 79/169/28 83/32/28

f 84/31/28 83/32/28 79/169/28

f 81/166/4 82/165/4 16/18/4

vn 1 2.45831e-16 -0
vt 0.834124 5.82677
vt 0.834124 5.70866
f 81/170/29 30/171/29 16/172/29

f 30/171/29 81/170/29 80/169/29

vn -1 -2.45831e-16 0
f 16/172/30 30/171/30 81/170/30

f 80/169/30 81/170/30 30/171/30

f 80/108/18 79/163/18 81/110/18

f 27/35/10 24/25/10 26/34/10

f 46/73/14 45/61/14 52/95/14

f 51/94/2 48/81/2 52/93/2

f 1/53/5 8/15/5 31/14/5

f 8/15/5 1/53/5 3/52/5

f 31/14/6 8/15/6 1/53/6

vt -0.0787402 5.70866
vt -0.0787402 5.82677
f 8/173/9 12/4/9 31/174/9

f 12/4/9 8/173/9 11/2/9

f 11/2/10 8/173/10 12/4/10

f 31/174/10 12/4/10 8/173/10

f 11/15/6 12/14/6 10/2/6

f 3/52/6 1/53/6 8/15/6

