# Alias OBJ Model File
# Exported from SketchUp, (c) 2000-2012 Trimble Navigation Limited
# File units = centimeters

mtllib lockalas.mtl

g Mesh1 penompangalas1 Model

usemtl Color_L05
v 0.5 29.4 -24
vt 0.393701 0.472441
vn 0 0 1
v 3.24851e-13 29.1 -24
vt 0.19685 0.354331
v 0.5 29.1 -24
vt 0.393701 0.354331
f 1/1/1 2/2/1 3/3/1

v -0.5 29.4 -24
vt 0 0.472441
f 4/4/1 2/2/1 1/1/1

v 3.24851e-13 28.5 -24
vt 0.19685 0.11811
f 4/4/1 5/5/1 2/2/1

v -0.5 28.2 -24
vt 0 4.44089e-16
f 6/6/1 5/5/1 4/4/1

v 0.5 28.5 -24
vt 0.393701 0.11811
f 6/6/1 7/7/1 5/5/1

v 0.5 28.2 -24
vt 0.393701 4.44089e-16
f 7/7/1 6/6/1 8/8/1

vn -0 -0 -1
f 8/8/2 6/6/2 7/7/2

vt -0.393701 2.84217e-14
vn 0 -1 -0
vt 0 2.84217e-14
v 0.5 28.2 -30.5
vt -0.393701 2.55906
f 8/9/3 6/10/3 9/11/3

vn -0 1 0
f 9/11/4 6/10/4 8/9/4

v -0.5 28.2 -31.5
vt 0 2.95276
f 10/12/3 9/11/3 6/10/3

v 14.5 28.2 -31.5
vt -5.90551 2.95276
f 9/11/3 10/12/3 11/13/3

f 6/10/4 9/11/4 10/12/4

f 11/13/4 10/12/4 9/11/4

v -0.5 29.4 -31.5
vn 0 0 -1
vt -5.90551 4.44089e-16
f 12/4/5 11/14/5 10/6/5

v 14.5 29.4 -31.5
vt -5.90551 0.472441
f 11/14/5 12/4/5 13/15/5

vn -0 -0 1
f 10/6/6 11/14/6 12/4/6

f 13/15/6 12/4/6 11/14/6

vn 0 1 -0
v 0.5 29.4 -30.5
vt 0.393701 2.55906
vt 5.90551 2.95276
f 12/12/7 14/16/7 13/17/7

vt 0.393701 2.84217e-14
f 12/12/7 1/18/7 14/16/7

f 1/18/7 12/12/7 4/10/7

vn -0 -1 0
f 4/10/8 12/12/8 1/18/8

vt -2.95276 0.472441
vn -1 0 -0
vt -2.84217e-14 4.44089e-16
vt -2.84217e-14 0.472441
f 12/19/9 6/20/9 4/21/9

vt -2.95276 4.44089e-16
f 6/20/9 12/19/9 10/22/9

vn 1 -0 0
f 4/21/10 6/20/10 12/19/10

f 4/4/2 5/5/2 6/6/2

f 2/2/2 5/5/2 4/4/2

v 3.24851e-13 28.5 -31
vt 2.75591 0.11811
vn 1 0 -0
vt 2.84217e-14 0.354331
vt 2.84217e-14 0.11811
f 15/23/11 2/24/11 5/25/11

v 3.24851e-13 29.1 -31
vt 2.75591 0.354331
f 2/24/11 15/23/11 16/26/11

vn -1 -0 0
f 5/25/12 2/24/12 15/23/12

f 16/26/12 15/23/12 2/24/12

v 14 29.1 -31
vt 5.70866 0.354331
f 15/5/1 17/27/1 16/2/1

v 14 28.5 -31
vt 5.70866 0.11811
f 17/27/1 15/5/1 18/28/1

f 18/28/2 15/5/2 17/27/2

vt 0.19685 2.75591
v 0.5 28.5 -30.5
vt 5.70866 2.75591
f 15/29/7 19/16/7 18/30/7

f 15/29/7 7/18/7 19/16/7

vt 0.19685 2.84217e-14
f 7/18/7 15/29/7 5/31/7

f 5/31/8 15/29/8 7/18/8

f 19/16/8 7/18/8 15/29/8

vt 2.55906 4.44089e-16
vt 2.55906 0.11811
f 7/25/11 9/32/11 19/33/11

vt 2.84217e-14 4.44089e-16
f 9/32/11 7/25/11 8/34/11

f 8/34/12 7/25/12 9/32/12

f 19/33/12 9/32/12 7/25/12

v 13.5 28.5 -30.5
vt 5.51181 0.11811
f 9/8/1 20/35/1 19/7/1

v 13.5 28.2 -30.5
vt 5.51181 4.44089e-16
f 20/35/1 9/8/1 21/36/1

f 21/36/2 9/8/2 20/35/2

vt -5.51181 2.55906
f 9/11/3 11/13/3 21/37/3

f 21/37/4 11/13/4 9/11/4

v 13.5 28.2 -24
vt -5.51181 0
f 21/37/3 11/13/3 22/38/3

f 22/38/4 11/13/4 21/37/4

v 14.5 28.2 -24
vt -5.90551 0
f 22/38/3 11/13/3 23/39/3

f 23/39/4 11/13/4 22/38/4

vt 2.95276 4.44089e-16
v 14.5 29.4 -24
vt 0 0
f 11/40/11 24/4/11 23/41/11

vt 2.95276 0.472441
f 24/4/11 11/40/11 13/42/11

f 23/41/12 24/4/12 11/40/12

v 14 28.5 -24
vn 4.80512e-15 3.05087e-15 1
vt 5.90551 -8.65734e-29
vt 5.90551 0.472441
f 25/28/13 23/43/13 24/44/13

vt 5.51181 -8.08019e-29
f 23/43/13 25/28/13 22/45/13

vn -4.80512e-15 -3.05087e-15 -1
f 22/45/14 25/28/14 23/43/14

v 13.5 28.5 -24
f 26/35/13 22/45/13 25/28/13

vt -2.55906 0.11811
vt 0 0.11811
f 20/46/9 22/41/9 26/47/9

vt -2.55906 4.44089e-16
f 22/41/9 20/46/9 21/48/9

f 26/47/10 22/41/10 20/46/10

f 25/28/14 22/45/14 26/35/14

vt 5.70866 2.84217e-14
vt 5.51181 2.55906
vt 5.51181 0
f 25/49/7 20/50/7 26/51/7

f 18/30/7 20/50/7 25/49/7

f 18/30/7 19/16/7 20/50/7

f 18/30/8 19/16/8 15/29/8

f 20/50/8 19/16/8 18/30/8

f 19/7/2 20/35/2 9/8/2

f 25/49/8 20/50/8 18/30/8

f 26/51/8 20/50/8 25/49/8

vt -2.84217e-14 0.11811
vt -2.75591 0.354331
vt -2.75591 0.11811
f 25/52/9 17/53/9 18/54/9

v 14 29.1 -24
vt -2.84217e-14 0.354331
f 17/53/9 25/52/9 27/55/9

f 27/55/10 25/52/10 17/53/10

f 25/28/13 24/44/13 27/27/13

f 24/44/14 23/43/14 25/28/14

f 27/27/14 24/44/14 25/28/14

v 13.5 29.1 -24
vt 5.51181 0.354331
f 27/27/13 24/44/13 28/56/13

f 28/56/14 24/44/14 27/27/14

v 13.5 29.4 -24
vt 5.51181 0.472441
f 28/56/13 24/44/13 29/57/13

f 29/57/14 24/44/14 28/56/14

vt 5.90551 0
v 13.5 29.4 -30.5
f 24/58/7 30/50/7 29/51/7

f 13/17/7 30/50/7 24/58/7

f 13/17/7 14/16/7 30/50/7

f 13/17/8 14/16/8 12/12/8

f 30/50/8 14/16/8 13/17/8

v 0.5 29.1 -30.5
f 31/3/1 30/57/1 14/1/1

v 13.5 29.1 -30.5
f 30/57/1 31/3/1 32/56/1

f 32/56/2 31/3/2 30/57/2

vt -5.70866 2.75591
f 31/11/3 17/59/3 32/37/3

vt -0.19685 2.75591
f 31/11/3 16/60/3 17/59/3

vt -0.19685 2.84217e-14
f 16/60/3 31/11/3 2/61/3

f 2/61/4 31/11/4 16/60/4

f 3/9/3 2/61/3 31/11/3

f 3/3/2 2/2/2 1/1/2

f 31/11/4 2/61/4 3/9/4

vt 2.55906 0.354331
vt 2.84217e-14 0.472441
f 31/62/11 1/63/11 3/24/11

vt 2.55906 0.472441
f 1/63/11 31/62/11 14/64/11

f 3/24/12 1/63/12 31/62/12

f 14/64/12 31/62/12 1/63/12

f 14/1/2 30/57/2 31/3/2

f 14/16/8 1/18/8 12/12/8

f 1/1/2 2/2/2 4/4/2

f 17/59/4 16/60/4 31/11/4

f 16/2/2 17/27/2 15/5/2

f 32/37/4 17/59/4 31/11/4

f 32/37/3 17/59/3 28/38/3

f 28/38/4 17/59/4 32/37/4

vt -5.70866 2.84217e-14
f 28/38/3 17/59/3 27/65/3

f 27/65/4 17/59/4 28/38/4

vt 0 0.354331
vt -2.55906 0.472441
vt -2.55906 0.354331
f 28/66/9 30/67/9 32/68/9

f 30/67/9 28/66/9 29/4/9

f 29/4/10 28/66/10 30/67/10

f 32/68/10 30/67/10 28/66/10

f 29/51/8 30/50/8 24/58/8

f 24/58/8 30/50/8 13/17/8

f 13/42/12 11/40/12 24/4/12

f 18/54/10 17/53/10 25/52/10

f 21/48/10 20/46/10 22/41/10

f 5/5/2 7/7/2 6/6/2

f 10/22/10 12/19/10 6/20/10

