# Alias OBJ Model File
# Exported from SketchUp, (c) 2000-2012 Trimble Navigation Limited
# File units = centimeters

mtllib lockalasR.mtl

g Mesh1 Component_27_1 Model

usemtl Color_L05
v 305.217 6.52359 -193.042
vt 0.19685 0
vn 1 0 -0
v 305.217 6.82359 -193.042
vt 0.19685 0.11811
v 305.217 6.52359 -186.542
vt 2.75591 0
f 1/1/1 2/2/1 3/3/1

vn -1 -0 0
f 3/3/2 2/2/2 1/1/2

v 305.217 6.82359 -186.542
vt 2.75591 0.11811
f 4/4/1 3/3/1 2/2/1

f 2/2/2 3/3/2 4/4/2

vt 0 0.11811
vn 0 0 -1
v 318.217 6.82359 -186.542
vt 5.11811 0.11811
vt 0 0
f 4/5/3 5/6/3 3/7/3

vt 5.11811 2.75591
vn 0 1 -0
vt 0 2.75591
v 319.217 6.82359 -185.542
vt 5.51181 3.14961
f 5/8/4 4/9/4 6/10/4

vn -0 -1 0
f 6/10/5 4/9/5 5/8/5

v 304.217 6.82359 -185.542
vt -0.393701 3.14961
f 6/10/4 4/9/4 7/11/4

f 7/11/5 4/9/5 6/10/5

vt 0 0.19685
f 4/9/4 2/12/4 7/11/4

f 7/11/5 2/12/5 4/9/5

v 304.217 6.82359 -193.042
vt -0.393701 0.19685
f 8/13/4 7/11/4 2/12/4

f 2/12/5 7/11/5 8/13/5

vt -0.19685 0.11811
vn -1 0 -0
v 304.217 5.62359 -193.042
vt -0.19685 -0.354331
vt -3.14961 0.11811
f 8/14/6 9/15/6 7/16/6

vt -0.393701 0.11811
v 304.717 5.92359 -193.042
vt -0.19685 -0.23622
vt -0.393701 -0.354331
f 8/17/3 10/18/3 9/19/3

v 304.717 6.52359 -193.042
vt -0.19685 0
f 11/20/3 10/18/3 8/17/3

vn -0 -0 1
f 8/17/7 10/18/7 11/20/7

f 9/19/7 10/18/7 8/17/7

v 305.217 5.92359 -193.042
vt 0 -0.23622
f 10/18/3 12/21/3 9/19/3

vt -0.19685 0.19685
v 304.717 5.92359 -186.042
vt -0.19685 2.95276
f 10/22/4 13/23/4 12/12/4

f 12/12/5 13/23/5 10/22/5

v 305.217 5.92359 -186.542
f 14/9/4 12/12/4 13/23/4

f 13/23/5 12/12/5 14/9/5

vt 2.75591 -0.23622
v 305.217 5.62359 -186.542
vt 2.75591 -0.354331
vt 0.19685 -0.23622
f 14/24/1 15/25/1 12/26/1

f 12/26/2 15/25/2 14/24/2

v 305.217 5.62359 -193.042
vt 0.19685 -0.354331
f 16/27/1 12/26/1 15/25/1

f 15/25/2 12/26/2 16/27/2

vt 0 -0.354331
f 16/28/3 9/19/3 12/21/3

vn 0 -1 -0
vt 0.393701 0.19685
f 15/9/8 9/29/8 16/12/8

v 304.217 5.62359 -185.542
vt 0.393701 3.14961
f 9/29/8 15/9/8 17/30/8

vn -0 1 0
f 16/12/9 9/29/9 15/9/9

f 12/21/7 9/19/7 16/28/7

f 9/19/7 12/21/7 10/18/7

f 17/30/9 15/9/9 9/29/9

v 319.217 5.62359 -185.542
vt -5.51181 3.14961
f 18/31/8 17/30/8 15/9/8

f 15/9/9 17/30/9 18/31/9

vt 0.393701 -0.354331
vn 0 0 1
vt -5.51181 -0.354331
vt 0.393701 0.11811
f 17/32/10 18/33/10 7/34/10

vn -0 -0 -1
f 7/34/11 18/33/11 17/32/11

vt -5.51181 0.11811
f 6/35/10 7/34/10 18/33/10

f 18/33/11 7/34/11 6/35/11

vt 3.14961 0.11811
vt 3.14961 -0.354331
v 319.217 6.82359 -193.042
f 6/36/1 18/37/1 19/2/1

f 19/2/2 18/37/2 6/36/2

v 319.217 5.62359 -193.042
f 20/27/1 19/2/1 18/37/1

f 18/37/2 19/2/2 20/27/2

vt 5.51181 0.11811
vn 4.80512e-15 3.05087e-15 -1
vt 5.51181 -0.354331
v 318.717 5.92359 -193.042
vt 5.31496 -0.23622
f 19/38/12 20/39/12 21/40/12

vn -4.80512e-15 -3.05087e-15 1
f 21/40/13 20/39/13 19/38/13

v 318.217 5.62359 -193.042
vt 5.11811 -0.354331
f 22/41/12 21/40/12 20/39/12

v 318.217 5.92359 -193.042
vt 5.11811 -0.23622
f 21/40/12 22/41/12 23/42/12

f 20/39/13 21/40/13 22/41/13

f 23/42/13 22/41/13 21/40/13

v 318.217 5.92359 -186.542
vt -2.75591 -0.23622
f 23/18/6 22/15/6 24/43/6

vn 1 -0 0
f 24/43/14 22/15/14 23/18/14

v 318.217 5.62359 -186.542
vt -2.75591 -0.354331
f 25/44/6 24/43/6 22/15/6

f 22/15/14 24/43/14 25/44/14

f 25/41/3 15/28/3 24/42/3

vt -5.11811 2.75591
f 25/45/8 18/31/8 15/9/8

vt -5.11811 0.19685
f 22/46/8 18/31/8 25/45/8

vt -5.51181 0.19685
f 20/47/8 18/31/8 22/46/8

f 22/46/9 18/31/9 20/47/9

f 25/45/9 18/31/9 22/46/9

f 15/9/9 18/31/9 25/45/9

f 24/42/7 15/28/7 25/41/7

f 14/21/3 24/42/3 15/28/3

v 318.717 5.92359 -186.042
vt 5.31496 2.95276
f 24/8/4 14/9/4 26/48/4

f 26/48/5 14/9/5 24/8/5

f 26/48/4 14/9/4 13/23/4

f 13/23/5 14/9/5 26/48/5

v 318.717 6.52359 -186.042
vt 5.31496 0
f 26/40/3 13/18/3 27/49/3

f 27/49/7 13/18/7 26/40/7

v 304.717 6.52359 -186.042
f 28/20/3 27/49/3 13/18/3

vt -5.31496 2.95276
vt 0.19685 2.95276
f 27/50/8 28/51/8 3/9/8

f 3/9/9 28/51/9 27/50/9

vt 0.19685 0.19685
f 11/52/8 3/9/8 28/51/8

f 3/9/8 11/52/8 1/12/8

f 28/51/9 3/9/9 11/52/9

f 1/12/9 11/52/9 3/9/9

f 1/7/3 11/20/3 2/5/3

f 2/5/7 11/20/7 1/7/7

f 2/5/3 11/20/3 8/17/3

f 8/17/7 11/20/7 2/5/7

vt 2.95276 0
vt 2.95276 -0.23622
f 28/53/1 13/54/1 11/1/1

f 13/18/7 27/49/7 28/20/7

f 11/1/2 13/54/2 28/53/2

f 10/26/1 11/1/1 13/54/1

f 13/54/2 11/1/2 10/26/2

v 318.217 6.52359 -186.542
f 29/45/8 27/50/8 3/9/8

v 318.217 6.52359 -193.042
f 30/46/8 27/50/8 29/45/8

v 318.717 6.52359 -193.042
vt -5.31496 0.19685
f 31/55/8 27/50/8 30/46/8

f 30/46/9 27/50/9 31/55/9

f 29/45/9 27/50/9 30/46/9

f 3/9/9 27/50/9 29/45/9

vt 5.11811 0
f 29/56/3 3/7/3 5/6/3

f 5/6/7 3/7/7 29/56/7

f 3/7/7 5/6/7 4/5/7

vt -2.75591 0
vt -2.75591 0.11811
vt -0.19685 -4.44089e-16
f 29/57/6 5/58/6 30/59/6

f 30/59/14 5/58/14 29/57/14

v 318.217 6.82359 -193.042
f 32/14/6 30/59/6 5/58/6

f 5/58/14 30/59/14 32/14/14

vt 5.11811 1.56475e-16
f 32/6/12 19/38/12 30/60/12

vt 5.11811 0.19685
vt 5.51181 0.19685
f 32/61/4 5/8/4 19/62/4

f 19/62/5 5/8/5 32/61/5

f 19/62/4 5/8/4 6/10/4

f 6/10/5 5/8/5 19/62/5

f 30/60/13 19/38/13 32/6/13

vt 5.31496 1.56475e-16
f 30/60/12 19/38/12 31/63/12

f 31/63/13 19/38/13 30/60/13

f 31/63/12 19/38/12 21/40/12

f 21/40/13 19/38/13 31/63/13

vt -2.95276 0
f 31/59/6 21/18/6 27/64/6

f 27/64/14 21/18/14 31/59/14

vt -2.95276 -0.23622
f 26/65/6 27/64/6 21/18/6

f 21/18/14 27/64/14 26/65/14

vt 5.31496 0.19685
f 21/66/4 24/8/4 26/48/4

f 23/61/4 24/8/4 21/66/4

f 21/66/5 24/8/5 23/61/5

f 26/48/5 24/8/5 21/66/5

f 15/28/7 24/42/7 14/21/7

vt -3.14961 -0.354331
f 17/67/6 7/16/6 9/15/6

f 9/15/14 7/16/14 17/67/14

f 7/16/14 9/15/14 8/14/14

